<svg id="visual" viewBox="0 0 675 900" width="675" height="900" xmlns="http://www.w3.org/2000/svg" xmlns:xlink="http://www.w3.org/1999/xlink" version="1.1"><rect x="0" y="0" width="675" height="900" fill="#fff"></rect><defs><linearGradient id="grad1_0" x1="0%" y1="0%" x2="100%" y2="100%"><stop offset="30%" stop-color="#ffffff" stop-opacity="1"></stop><stop offset="70%" stop-color="#ffffff" stop-opacity="1"></stop></linearGradient></defs><defs><linearGradient id="grad2_0" x1="0%" y1="0%" x2="100%" y2="100%"><stop offset="30%" stop-color="#ffffff" stop-opacity="1"></stop><stop offset="70%" stop-color="#ffffff" stop-opacity="1"></stop></linearGradient></defs><g transform="translate(675, 0)"><path d="M0 281.3C-40.2 280.7 -80.4 280.2 -107.6 259.8C-134.9 239.5 -149.2 199.3 -171.1 171.1C-193 142.9 -222.4 126.8 -242.1 100.3C-261.7 73.7 -271.5 36.9 -281.2 0L0 0Z" fill="#033232"></path></g><g transform="translate(0, 900)"><path d="M0 -281.2C36.5 -278.4 72.9 -275.5 107.6 -259.8C142.3 -244.2 175.3 -215.9 181 -181C186.7 -146.1 165.2 -104.7 177.4 -73.5C189.6 -42.2 235.4 -21.1 281.3 0L0 0Z" fill="#033232"></path></g></svg>