<svg id="visual" viewBox="0 0 960 540" width="960" height="540" xmlns="http://www.w3.org/2000/svg" xmlns:xlink="http://www.w3.org/1999/xlink" version="1.1"><rect x="0" y="0" width="960" height="540" fill="#fff"></rect><path d="M403 540L411.8 517.5C420.7 495 438.3 450 438.5 405C438.7 360 421.3 315 426 270C430.7 225 457.3 180 456.2 135C455 90 426 45 411.5 22.5L397 0L960 0L960 22.5C960 45 960 90 960 135C960 180 960 225 960 270C960 315 960 360 960 405C960 450 960 495 960 517.5L960 540Z" fill="#715DF2" stroke-linecap="round" stroke-linejoin="miter"></path></svg>