<svg id="visual" viewBox="0 0 960 540" width="960" height="540" xmlns="http://www.w3.org/2000/svg" xmlns:xlink="http://www.w3.org/1999/xlink" version="1.1"><rect x="0" y="0" width="960" height="540" fill="#023430"></rect><path d="M345 0L354.8 18C364.7 36 384.3 72 399.8 108C415.3 144 426.7 180 428.5 216C430.3 252 422.7 288 436.8 324C451 360 487 396 472.2 432C457.3 468 391.7 504 358.8 522L326 540L0 540L0 522C0 504 0 468 0 432C0 396 0 360 0 324C0 288 0 252 0 216C0 180 0 144 0 108C0 72 0 36 0 18L0 0Z" fill="#fff" stroke-linecap="round" stroke-linejoin="miter"></path></svg>