<svg id="visual" viewBox="0 0 960 540" width="960" height="540" xmlns="http://www.w3.org/2000/svg" xmlns:xlink="http://www.w3.org/1999/xlink" version="1.1"><rect x="0" y="0" width="960" height="540" fill="#fff"></rect><path d="M466 540L471.3 522C476.7 504 487.3 468 481.7 432C476 396 454 360 438.3 324C422.7 288 413.3 252 429.8 216C446.3 180 488.7 144 487.8 108C487 72 443 36 421 18L399 0L960 0L960 18C960 36 960 72 960 108C960 144 960 180 960 216C960 252 960 288 960 324C960 360 960 396 960 432C960 468 960 504 960 522L960 540Z" fill="#0f1640" stroke-linecap="round" stroke-linejoin="miter"></path></svg>