<svg id="visual" viewBox="0 0 960 540" width="960" height="540" xmlns="http://www.w3.org/2000/svg" xmlns:xlink="http://www.w3.org/1999/xlink" version="1.1"><rect x="0" y="0" width="960" height="540" fill="#fff"></rect><path d="M454 540L462.8 517.5C471.7 495 489.3 450 499.3 405C509.3 360 511.7 315 491.5 270C471.3 225 428.7 180 432.5 135C436.3 90 486.7 45 511.8 22.5L537 0L960 0L960 22.5C960 45 960 90 960 135C960 180 960 225 960 270C960 315 960 360 960 405C960 450 960 495 960 517.5L960 540Z" fill="#0f1640" stroke-linecap="round" stroke-linejoin="miter"></path></svg>